<?xml version="1.0" encoding="UTF-8"?>
<svg width="100%" height="100%" viewBox="0 0 240 160" fill="none" xmlns="http://www.w3.org/2000/svg">
  <style>
    @keyframes rain {
      0% { transform: translateY(-20px); }
      100% { transform: translateY(20px); }
    }
    @keyframes glow {
      0% { opacity: 0.8; }
      50% { opacity: 1; }
      100% { opacity: 0.8; }
    }
    @keyframes snow {
      0% { transform: translateX(-5px); }
      50% { transform: translateX(5px); }
      100% { transform: translateX(-5px); }
    }
    .rain-drop {
      animation: rain 1s infinite linear;
    }
    .window-glow {
      animation: glow 2s infinite ease-in-out;
    }
    .snow-line {
      animation: snow 3s infinite ease-in-out;
    }
  </style>
  
  <!-- House base with gradient -->
  <defs>
    <linearGradient id="houseGradient" x1="0%" y1="0%" x2="100%" y2="100%">
      <stop offset="0%" style="stop-color:#4A3AFF;stop-opacity:0.2" />
      <stop offset="100%" style="stop-color:#6B4EFF;stop-opacity:0.3" />
    </linearGradient>
    <linearGradient id="roofGradient" x1="0%" y1="0%" x2="100%" y2="100%">
      <stop offset="0%" style="stop-color:#6B4EFF;stop-opacity:0.3" />
      <stop offset="100%" style="stop-color:#8A6EFF;stop-opacity:0.4" />
    </linearGradient>
  </defs>

  <!-- House base -->
  <path d="M40 80h160v60H40z" fill="url(#houseGradient)"/>
  
  <!-- Roof -->
  <path d="M20 80L120 20l100 60H20z" fill="url(#roofGradient)"/>
  
  <!-- Windows with glow effect -->
  <rect x="60" y="100" width="30" height="30" rx="4" fill="#FFD700" class="window-glow"/>
  <rect x="150" y="100" width="30" height="30" rx="4" fill="#FFD700" class="window-glow"/>
  
  <!-- Door with gradient -->
  <path d="M105 100h30v40h-30z" fill="#4A3AFF" opacity="0.4"/>
  <circle cx="127" cy="120" r="2" fill="#FFD700"/>
  
  <!-- Snow on roof with animation -->
  <path class="snow-line" d="M30 75c0 0 20-10 40-10s40 10 40 10s20-10 40-10s40 10 40 10" stroke="#fff" stroke-width="4" stroke-linecap="round" opacity="0.6"/>
  
  <!-- Animated rain drops -->
  <g opacity="0.6">
    <path class="rain-drop" d="M50 40l-5 10" stroke="#4FC3F7" stroke-width="2" stroke-linecap="round"/>
    <path class="rain-drop" style="animation-delay: 0.2s" d="M80 30l-5 10" stroke="#4FC3F7" stroke-width="2" stroke-linecap="round"/>
    <path class="rain-drop" style="animation-delay: 0.4s" d="M110 25l-5 10" stroke="#4FC3F7" stroke-width="2" stroke-linecap="round"/>
    <path class="rain-drop" style="animation-delay: 0.6s" d="M140 30l-5 10" stroke="#4FC3F7" stroke-width="2" stroke-linecap="round"/>
    <path class="rain-drop" style="animation-delay: 0.8s" d="M170 40l-5 10" stroke="#4FC3F7" stroke-width="2" stroke-linecap="round"/>
  </g>
</svg> 